<?xml version="1.0" standalone="no"?>
<!DOCTYPE svg PUBLIC "-//W3C//DTD SVG 20010904//EN"
 "http://www.w3.org/TR/2001/REC-SVG-20010904/DTD/svg10.dtd">
<svg version="1.0" xmlns="http://www.w3.org/2000/svg"
 width="64.000000pt" height="64.000000pt" viewBox="0 0 64.000000 64.000000"
 preserveAspectRatio="xMidYMid meet">
<g transform="translate(0.000000,64.000000) scale(0.100000,-0.100000)"
fill="#000000" stroke="none">
<path d="M332 597 c-12 -13 -22 -36 -22 -52 0 -23 -3 -26 -12 -17 -19 19 -72
14 -97 -9 -57 -53 -53 -157 8 -218 l21 -21 -89 0 -90 0 -15 -32 c-20 -39 -21
-78 -2 -78 16 0 21 -13 32 -75 13 -80 -2 -75 249 -75 253 0 248 -1 260 76 9
61 14 74 31 74 19 0 18 39 -2 78 l-15 32 -90 0 -89 0 21 21 c61 61 65 165 8
218 -25 23 -78 28 -97 9 -9 -9 -12 -6 -12 14 0 29 23 58 46 58 8 0 14 5 14 10
0 18 -36 10 -58 -13z m-35 -92 c19 -13 24 -13 50 2 56 32 113 -11 113 -84 0
-41 -40 -115 -72 -133 -24 -13 -29 -13 -47 4 -20 18 -22 18 -41 1 -17 -15 -24
-16 -45 -7 -30 14 -63 64 -71 109 -17 89 50 152 113 108z m283 -255 c0 -6 -93
-10 -260 -10 -167 0 -260 4 -260 10 0 6 93 10 260 10 167 0 260 -4 260 -10z
m-460 -45 c0 -11 -11 -15 -40 -15 -29 0 -40 4 -40 15 0 11 11 15 40 15 29 0
40 -4 40 -15z m130 -10 c0 -24 -3 -25 -55 -25 -52 0 -55 1 -55 25 0 24 3 25
55 25 52 0 55 -1 55 -25z m120 10 c0 -11 -12 -15 -50 -15 -38 0 -50 4 -50 15
0 11 12 15 50 15 38 0 50 -4 50 -15z m130 -10 c0 -24 -3 -25 -55 -25 -52 0
-55 1 -55 25 0 24 3 25 55 25 52 0 55 -1 55 -25z m100 10 c0 -11 -11 -15 -40
-15 -29 0 -40 4 -40 15 0 11 11 15 40 15 29 0 40 -4 40 -15z m-475 -45 c3 -5
35 -10 71 -10 36 0 64 4 64 10 0 6 27 10 60 10 33 0 60 -4 60 -10 0 -6 28 -10
64 -10 36 0 68 5 71 10 3 6 17 10 30 10 24 0 24 1 0 -107 -5 -23 -5 -23 -225
-23 -220 0 -220 0 -225 23 -24 108 -24 107 0 107 13 0 27 -4 30 -10z"/>
</g>
</svg>
