<?xml version="1.0" standalone="no"?>
<!DOCTYPE svg PUBLIC "-//W3C//DTD SVG 20010904//EN"
 "http://www.w3.org/TR/2001/REC-SVG-20010904/DTD/svg10.dtd">
<svg version="1.0" xmlns="http://www.w3.org/2000/svg"
 width="64.000000pt" height="64.000000pt" viewBox="0 0 64.000000 64.000000"
 preserveAspectRatio="xMidYMid meet">
<g transform="translate(0.000000,64.000000) scale(0.100000,-0.100000)"
fill="#000000" stroke="none">
<path d="M190 551 c0 -5 -14 -14 -31 -21 -48 -20 -94 -130 -54 -130 8 0 15 -6
15 -14 0 -8 6 -17 13 -19 6 -3 -18 -6 -55 -6 -66 -1 -68 -2 -68 -26 0 -14 5
-25 10 -25 6 0 10 -35 10 -84 0 -62 4 -87 15 -96 8 -7 15 -21 15 -31 0 -14 7
-19 30 -19 23 0 30 4 30 20 0 19 7 20 200 20 193 0 200 -1 200 -20 0 -16 7
-20 30 -20 23 0 30 5 30 19 0 10 7 24 15 31 11 9 15 34 15 96 0 49 4 84 10 84
6 0 10 11 10 25 0 24 -2 25 -67 26 -38 0 -62 3 -55 6 6 2 12 11 12 19 0 8 7
14 15 14 34 0 -6 113 -45 125 -11 3 -27 13 -35 21 -13 14 -17 14 -30 0 -8 -8
-24 -18 -35 -21 -39 -12 -79 -125 -45 -125 8 0 15 -6 15 -14 0 -8 6 -17 13
-19 6 -3 -17 -5 -53 -5 -36 0 -59 2 -52 5 6 2 12 11 12 19 0 8 7 14 15 14 40
0 -6 110 -54 130 -17 7 -31 16 -31 21 0 5 -4 9 -10 9 -5 0 -10 -4 -10 -9z m65
-56 c40 -39 32 -45 -55 -45 -49 0 -80 4 -80 10 0 23 50 60 80 60 19 0 40 -9
55 -25z m240 0 c40 -39 32 -45 -55 -45 -49 0 -80 4 -80 10 0 23 50 60 80 60
19 0 40 -9 55 -25z m-247 -72 c-27 -2 -69 -2 -96 0 -26 2 -4 3 48 3 52 0 74
-1 48 -3z m240 0 c-27 -2 -69 -2 -95 0 -27 2 -5 3 47 3 52 0 74 -1 48 -3z
m-250 -30 c-21 -2 -55 -2 -75 0 -21 2 -4 4 37 4 41 0 58 -2 38 -4z m240 0
c-21 -2 -55 -2 -75 0 -21 2 -4 4 37 4 41 0 58 -2 38 -4z m-255 -30 c-13 -2
-33 -2 -45 0 -13 2 -3 4 22 4 25 0 35 -2 23 -4z m240 0 c-13 -2 -33 -2 -45 0
-13 2 -3 4 22 4 25 0 35 -2 23 -4z m4 -30 c-81 -2 -213 -2 -295 0 -81 1 -14 3
148 3 162 0 229 -2 147 -3z m123 -108 l0 -85 -270 0 -270 0 0 85 0 85 270 0
270 0 0 -85z m-490 -115 c0 -5 -4 -10 -10 -10 -5 0 -10 5 -10 10 0 6 5 10 10
10 6 0 10 -4 10 -10z m460 0 c0 -5 -4 -10 -10 -10 -5 0 -10 5 -10 10 0 6 5 10
10 10 6 0 10 -4 10 -10z"/>
</g>
</svg>
