<?xml version="1.0" standalone="no"?>
<!DOCTYPE svg PUBLIC "-//W3C//DTD SVG 20010904//EN"
 "http://www.w3.org/TR/2001/REC-SVG-20010904/DTD/svg10.dtd">
<svg version="1.0" xmlns="http://www.w3.org/2000/svg"
 width="50.000000pt" height="50.000000pt" viewBox="0 0 50.000000 50.000000"
 preserveAspectRatio="xMidYMid meet">
<g transform="translate(0.000000,50.000000) scale(0.100000,-0.100000)"
fill="#000000" stroke="none">
<path d="M112 434 c-32 -35 -42 -79 -21 -86 6 -2 19 -70 29 -151 11 -81 22
-152 25 -157 8 -13 202 -13 210 0 3 5 14 76 25 157 10 81 23 149 29 151 21 7
11 51 -21 86 l-32 36 -106 0 -106 0 -32 -36z m243 6 c4 -6 -33 -10 -105 -10
-72 0 -109 4 -105 10 3 6 50 10 105 10 55 0 102 -4 105 -10z m43 -52 c3 -17
-9 -18 -147 -18 -119 0 -151 3 -151 13 0 8 3 17 7 21 4 3 70 5 147 4 125 -3
141 -5 144 -20z m-22 -60 c-3 -13 -6 -33 -6 -45 0 -32 -40 -30 -70 2 -30 32
-70 32 -100 0 -30 -32 -70 -34 -70 -2 0 12 -3 32 -6 45 l-6 22 132 0 132 0 -6
-22z m-84 -63 c13 -15 32 -25 48 -25 24 0 27 -3 22 -25 -3 -17 -11 -25 -25
-25 -11 0 -30 -11 -43 -25 -13 -14 -32 -25 -44 -25 -11 0 -30 11 -42 25 -12
14 -32 25 -44 25 -15 0 -23 7 -26 25 -5 22 -2 25 22 25 16 0 35 10 48 25 12
14 31 25 42 25 11 0 30 -11 42 -25z m-90 -120 c16 -14 40 -25 52 -25 12 0 33
11 46 25 13 14 31 25 40 25 14 0 16 -7 9 -47 -4 -27 -8 -54 -8 -60 -1 -18
-181 -18 -182 0 0 6 -4 33 -8 60 -9 56 4 62 51 22z"/>
<path d="M218 245 c-17 -38 0 -80 32 -80 18 0 27 8 34 27 13 36 -6 78 -34 78
-12 0 -25 -10 -32 -25z m47 -31 c0 -19 -5 -29 -15 -29 -16 0 -25 28 -16 51 10
25 31 10 31 -22z"/>
</g>
</svg>
