<?xml version="1.0" standalone="no"?>
<!DOCTYPE svg PUBLIC "-//W3C//DTD SVG 20010904//EN"
 "http://www.w3.org/TR/2001/REC-SVG-20010904/DTD/svg10.dtd">
<svg version="1.0" xmlns="http://www.w3.org/2000/svg"
 width="64.000000pt" height="64.000000pt" viewBox="0 0 64.000000 64.000000"
 preserveAspectRatio="xMidYMid meet">
<g transform="translate(0.000000,64.000000) scale(0.100000,-0.100000)"
fill="#000000" stroke="none">
<path d="M330 605 c-7 -8 -10 -21 -7 -30 5 -10 -5 -17 -32 -25 -82 -22 -142
-88 -156 -172 -4 -23 -12 -38 -21 -38 -8 0 -14 -6 -14 -14 0 -23 29 -46 56
-46 25 0 25 0 -7 -27 -18 -16 -38 -27 -44 -26 -6 2 -29 -15 -50 -37 l-39 -40
67 -67 67 -67 40 39 c22 22 38 45 36 51 -3 7 6 21 18 33 19 18 35 21 114 21
l92 0 45 41 c25 23 45 50 45 60 0 13 7 19 24 19 27 0 56 24 56 46 0 8 -7 14
-15 14 -9 0 -15 9 -15 23 0 13 -12 48 -27 78 -30 58 -72 93 -134 109 -27 8
-37 15 -32 25 7 19 -14 45 -37 45 -10 0 -23 -7 -30 -15z m46 -16 c10 -17 -13
-36 -27 -22 -12 12 -4 33 11 33 5 0 12 -5 16 -11z m108 -86 c42 -29 69 -73 81
-130 l7 -33 -211 0 c-234 0 -222 -5 -196 72 31 88 105 131 214 124 49 -3 72
-10 105 -33z m111 -193 c-8 -14 -462 -14 -470 0 -4 7 77 10 235 10 158 0 239
-3 235 -10z m-240 -50 c0 -11 -13 -16 -47 -18 -82 -5 -52 -22 39 -22 84 0 88
1 120 32 26 25 36 29 45 20 9 -9 3 -21 -27 -52 l-39 -40 -92 0 c-84 0 -95 -2
-122 -25 l-29 -24 -37 38 -37 38 41 37 c40 36 42 37 113 34 56 -2 72 -6 72
-18z m90 0 c-10 -11 -30 -20 -44 -20 -20 0 -27 5 -27 20 0 17 7 20 45 20 43 0
44 0 26 -20z m-290 -110 l49 -50 -27 -27 -27 -28 -52 52 -52 52 24 26 c13 14
26 25 30 25 3 0 28 -23 55 -50z"/>
</g>
</svg>
