<?xml version="1.0" standalone="no"?>
<!DOCTYPE svg PUBLIC "-//W3C//DTD SVG 20010904//EN"
 "http://www.w3.org/TR/2001/REC-SVG-20010904/DTD/svg10.dtd">
<svg version="1.0" xmlns="http://www.w3.org/2000/svg"
 width="32.000000pt" height="32.000000pt" viewBox="0 0 32.000000 32.000000"
 preserveAspectRatio="xMidYMid meet">
<g transform="translate(0.000000,32.000000) scale(0.100000,-0.100000)"
fill="#000000" stroke="none">
<path d="M132 288 c-15 -15 -16 -44 -2 -53 6 -4 4 -12 -5 -21 -8 -9 -15 -24
-15 -35 0 -16 7 -19 50 -19 43 0 50 3 50 20 0 10 -6 25 -14 32 -10 10 -11 17
-2 30 22 36 -32 76 -62 46z m48 -13 c15 -18 5 -35 -20 -35 -10 0 -22 5 -25 10
-7 11 12 40 25 40 4 0 13 -7 20 -15z m8 -82 c3 -20 -1 -23 -27 -23 -23 0 -31
5 -31 18 0 25 10 33 35 30 12 -2 21 -12 23 -25z"/>
<path d="M66 225 c-18 -28 -21 -45 -6 -45 6 0 10 5 10 12 0 6 10 22 22 35 17
18 18 23 6 23 -9 0 -23 -11 -32 -25z"/>
<path d="M228 227 c12 -13 22 -29 22 -35 0 -7 5 -12 10 -12 15 0 12 17 -6 45
-9 14 -23 25 -32 25 -12 0 -11 -5 6 -23z"/>
<path d="M40 145 c-7 -8 -10 -25 -6 -39 3 -14 2 -28 -4 -31 -5 -3 -10 -17 -10
-31 0 -22 4 -24 45 -24 41 0 45 2 45 24 0 14 -5 28 -10 31 -7 4 -7 13 0 26 23
41 -30 80 -60 44z m48 -20 c4 -20 -15 -36 -35 -28 -16 6 -17 25 -1 41 16 16
32 10 36 -13z m0 -57 c23 -23 13 -38 -23 -38 -38 0 -40 2 -25 31 12 22 30 25
48 7z"/>
<path d="M220 140 c-7 -14 -8 -26 0 -39 7 -13 7 -22 0 -26 -5 -3 -10 -17 -10
-31 0 -22 4 -24 45 -24 41 0 45 2 45 24 0 14 -5 28 -10 31 -6 3 -7 17 -4 31
12 47 -44 75 -66 34z m50 -5 c10 -12 10 -18 0 -29 -14 -18 -40 -10 -40 13 0
32 20 40 40 16z m10 -74 c15 -29 13 -31 -25 -31 -36 0 -46 15 -23 38 18 18 36
15 48 -7z"/>
<path d="M120 58 c0 -5 18 -8 40 -8 22 0 40 3 40 8 0 4 -18 7 -40 7 -22 0 -40
-3 -40 -7z"/>
</g>
</svg>
